<svg xmlns="http://www.w3.org/2000/svg" version="1.1" xmlns:xlink="http://www.w3.org/1999/xlink" xmlns:svgjs="http://svgjs.dev/svgjs" viewBox="0 0 2400 800" opacity="0.6"><g fill="#ffffff" transform="matrix(1,0,0,1,7.6488037109375,-463.0906066894531)"><path d="M-10,10C54.58333333333333,8.333333333333334,172.91666666666666,3.041666666666667,300,2C427.08333333333337,0.9583333333333333,475,3.3333333333333335,600,5C725,6.666666666666666,775,8.958333333333334,900,10C1025,11.041666666666666,1075,9.791666666666666,1200,10C1325,10.208333333333334,1375,11.416666666666666,1500,11C1625,10.583333333333334,1675,6.333333333333334,1800,8C1925,9.666666666666666,1975,18.791666666666668,2100,19C2225,19.208333333333332,2285.4166666666665,-70.375,2400,9C2514.5833333333335,88.375,3254.1666666666665,214.375,2650,400C2045.8333333333335,585.625,156.25,795.8333333333334,-500,900" transform="matrix(1,0,0,1,0,150)" opacity="0.05"></path><path d="M-10,10C54.58333333333333,8.333333333333334,172.91666666666666,3.041666666666667,300,2C427.08333333333337,0.9583333333333333,475,3.3333333333333335,600,5C725,6.666666666666666,775,8.958333333333334,900,10C1025,11.041666666666666,1075,9.791666666666666,1200,10C1325,10.208333333333334,1375,11.416666666666666,1500,11C1625,10.583333333333334,1675,6.333333333333334,1800,8C1925,9.666666666666666,1975,18.791666666666668,2100,19C2225,19.208333333333332,2285.4166666666665,-70.375,2400,9C2514.5833333333335,88.375,3254.1666666666665,214.375,2650,400C2045.8333333333335,585.625,156.25,795.8333333333334,-500,900" transform="matrix(1,0,0,1,0,300)" opacity="0.16"></path><path d="M-10,10C54.58333333333333,8.333333333333334,172.91666666666666,3.041666666666667,300,2C427.08333333333337,0.9583333333333333,475,3.3333333333333335,600,5C725,6.666666666666666,775,8.958333333333334,900,10C1025,11.041666666666666,1075,9.791666666666666,1200,10C1325,10.208333333333334,1375,11.416666666666666,1500,11C1625,10.583333333333334,1675,6.333333333333334,1800,8C1925,9.666666666666666,1975,18.791666666666668,2100,19C2225,19.208333333333332,2285.4166666666665,-70.375,2400,9C2514.5833333333335,88.375,3254.1666666666665,214.375,2650,400C2045.8333333333335,585.625,156.25,795.8333333333334,-500,900" transform="matrix(1,0,0,1,0,450)" opacity="0.26"></path><path d="M-10,10C54.58333333333333,8.333333333333334,172.91666666666666,3.041666666666667,300,2C427.08333333333337,0.9583333333333333,475,3.3333333333333335,600,5C725,6.666666666666666,775,8.958333333333334,900,10C1025,11.041666666666666,1075,9.791666666666666,1200,10C1325,10.208333333333334,1375,11.416666666666666,1500,11C1625,10.583333333333334,1675,6.333333333333334,1800,8C1925,9.666666666666666,1975,18.791666666666668,2100,19C2225,19.208333333333332,2285.4166666666665,-70.375,2400,9C2514.5833333333335,88.375,3254.1666666666665,214.375,2650,400C2045.8333333333335,585.625,156.25,795.8333333333334,-500,900" transform="matrix(1,0,0,1,0,600)" opacity="0.37"></path><path d="M-10,10C54.58333333333333,8.333333333333334,172.91666666666666,3.041666666666667,300,2C427.08333333333337,0.9583333333333333,475,3.3333333333333335,600,5C725,6.666666666666666,775,8.958333333333334,900,10C1025,11.041666666666666,1075,9.791666666666666,1200,10C1325,10.208333333333334,1375,11.416666666666666,1500,11C1625,10.583333333333334,1675,6.333333333333334,1800,8C1925,9.666666666666666,1975,18.791666666666668,2100,19C2225,19.208333333333332,2285.4166666666665,-70.375,2400,9C2514.5833333333335,88.375,3254.1666666666665,214.375,2650,400C2045.8333333333335,585.625,156.25,795.8333333333334,-500,900" transform="matrix(1,0,0,1,0,750)" opacity="0.47"></path><path d="M-10,10C54.58333333333333,8.333333333333334,172.91666666666666,3.041666666666667,300,2C427.08333333333337,0.9583333333333333,475,3.3333333333333335,600,5C725,6.666666666666666,775,8.958333333333334,900,10C1025,11.041666666666666,1075,9.791666666666666,1200,10C1325,10.208333333333334,1375,11.416666666666666,1500,11C1625,10.583333333333334,1675,6.333333333333334,1800,8C1925,9.666666666666666,1975,18.791666666666668,2100,19C2225,19.208333333333332,2285.4166666666665,-70.375,2400,9C2514.5833333333335,88.375,3254.1666666666665,214.375,2650,400C2045.8333333333335,585.625,156.25,795.8333333333334,-500,900" transform="matrix(1,0,0,1,0,900)" opacity="0.58"></path><path d="M-10,10C54.58333333333333,8.333333333333334,172.91666666666666,3.041666666666667,300,2C427.08333333333337,0.9583333333333333,475,3.3333333333333335,600,5C725,6.666666666666666,775,8.958333333333334,900,10C1025,11.041666666666666,1075,9.791666666666666,1200,10C1325,10.208333333333334,1375,11.416666666666666,1500,11C1625,10.583333333333334,1675,6.333333333333334,1800,8C1925,9.666666666666666,1975,18.791666666666668,2100,19C2225,19.208333333333332,2285.4166666666665,-70.375,2400,9C2514.5833333333335,88.375,3254.1666666666665,214.375,2650,400C2045.8333333333335,585.625,156.25,795.8333333333334,-500,900" transform="matrix(1,0,0,1,0,1050)" opacity="0.68"></path><path d="M-10,10C54.58333333333333,8.333333333333334,172.91666666666666,3.041666666666667,300,2C427.08333333333337,0.9583333333333333,475,3.3333333333333335,600,5C725,6.666666666666666,775,8.958333333333334,900,10C1025,11.041666666666666,1075,9.791666666666666,1200,10C1325,10.208333333333334,1375,11.416666666666666,1500,11C1625,10.583333333333334,1675,6.333333333333334,1800,8C1925,9.666666666666666,1975,18.791666666666668,2100,19C2225,19.208333333333332,2285.4166666666665,-70.375,2400,9C2514.5833333333335,88.375,3254.1666666666665,214.375,2650,400C2045.8333333333335,585.625,156.25,795.8333333333334,-500,900" transform="matrix(1,0,0,1,0,1200)" opacity="0.79"></path><path d="M-10,10C54.58333333333333,8.333333333333334,172.91666666666666,3.041666666666667,300,2C427.08333333333337,0.9583333333333333,475,3.3333333333333335,600,5C725,6.666666666666666,775,8.958333333333334,900,10C1025,11.041666666666666,1075,9.791666666666666,1200,10C1325,10.208333333333334,1375,11.416666666666666,1500,11C1625,10.583333333333334,1675,6.333333333333334,1800,8C1925,9.666666666666666,1975,18.791666666666668,2100,19C2225,19.208333333333332,2285.4166666666665,-70.375,2400,9C2514.5833333333335,88.375,3254.1666666666665,214.375,2650,400C2045.8333333333335,585.625,156.25,795.8333333333334,-500,900" transform="matrix(1,0,0,1,0,1350)" opacity="0.89"></path><path d="M-10,10C54.58333333333333,8.333333333333334,172.91666666666666,3.041666666666667,300,2C427.08333333333337,0.9583333333333333,475,3.3333333333333335,600,5C725,6.666666666666666,775,8.958333333333334,900,10C1025,11.041666666666666,1075,9.791666666666666,1200,10C1325,10.208333333333334,1375,11.416666666666666,1500,11C1625,10.583333333333334,1675,6.333333333333334,1800,8C1925,9.666666666666666,1975,18.791666666666668,2100,19C2225,19.208333333333332,2285.4166666666665,-70.375,2400,9C2514.5833333333335,88.375,3254.1666666666665,214.375,2650,400C2045.8333333333335,585.625,156.25,795.8333333333334,-500,900" transform="matrix(1,0,0,1,0,1500)" opacity="1.00"></path></g></svg>